<?xml version="1.0" standalone="no"?>
<!DOCTYPE svg PUBLIC "-//W3C//DTD SVG 20010904//EN"
 "http://www.w3.org/TR/2001/REC-SVG-20010904/DTD/svg10.dtd">
<svg version="1.0" xmlns="http://www.w3.org/2000/svg"
 width="512.000000pt" height="512.000000pt" viewBox="0 0 512.000000 512.000000"
 preserveAspectRatio="xMidYMid meet">

<g transform="translate(0.000000,512.000000) scale(0.100000,-0.100000)"
fill="#000000" stroke="none">
<path d="M2120 5074 c-200 -36 -341 -79 -464 -141 l-68 -34 -202 -2 c-223 -2
-236 -5 -294 -71 -31 -36 -52 -90 -52 -136 0 -22 -7 -28 -45 -39 -25 -7 -76
-28 -113 -46 l-68 -32 -34 29 c-58 48 -139 61 -208 33 -46 -20 -276 -245 -304
-299 -31 -61 -23 -152 20 -205 18 -22 32 -43 32 -47 0 -4 -13 -34 -29 -68 -15
-34 -36 -84 -45 -112 l-17 -52 -55 -4 c-66 -6 -118 -42 -152 -109 -22 -42 -23
-52 -20 -240 3 -193 3 -196 30 -236 34 -52 88 -85 149 -91 45 -4 49 -7 60 -41
6 -20 27 -70 46 -112 l35 -76 -33 -46 c-38 -54 -49 -131 -29 -193 16 -46 234
-275 290 -304 80 -41 162 -34 224 20 l33 29 104 -44 c57 -25 110 -45 117 -45
7 0 12 -12 12 -29 0 -70 48 -149 110 -181 29 -15 59 -20 117 -20 88 0 75 10
145 -113 49 -86 101 -216 123 -305 l17 -70 -36 -37 c-108 -108 -125 -274 -41
-401 33 -50 33 -53 15 -69 -38 -35 -64 -115 -65 -200 0 -68 4 -89 28 -137 32
-65 98 -128 161 -154 l43 -18 5 -141 c5 -110 10 -152 27 -195 30 -77 82 -144
145 -186 95 -63 119 -67 443 -72 420 -6 506 10 612 116 91 91 121 181 121 365
l0 112 55 24 c70 30 136 102 165 179 38 99 19 215 -51 312 -9 12 -5 26 19 64
81 127 64 289 -40 399 l-39 41 12 51 c41 173 130 345 306 590 160 224 237 338
278 417 l30 58 101 0 101 0 43 -187 c24 -104 48 -196 54 -205 24 -39 67 -48
228 -48 l154 0 14 -37 c7 -21 41 -66 75 -100 53 -53 71 -64 134 -83 58 -18 86
-21 135 -16 117 12 224 88 275 196 22 46 26 69 26 145 0 78 -4 97 -28 147 -57
116 -174 188 -307 188 -132 0 -237 -63 -299 -180 l-33 -61 -106 3 -106 3 -42
183 c-23 100 -50 194 -59 208 -23 36 -54 44 -171 44 -96 0 -105 2 -100 18 23
74 48 194 58 285 l12 107 273 0 273 0 21 -42 c47 -94 124 -156 223 -183 118
-32 250 7 334 99 64 70 85 124 86 226 1 77 -2 92 -32 152 -61 124 -169 190
-310 190 -55 -1 -85 -6 -126 -25 -73 -33 -140 -97 -172 -163 l-26 -54 -273 0
-272 0 -7 80 c-7 77 -47 287 -61 323 -7 16 2 17 109 17 112 0 117 1 146 28 27
24 34 45 73 214 l42 188 110 0 111 0 13 -35 c7 -19 34 -59 61 -88 137 -150
363 -150 500 0 121 133 121 323 0 456 -129 141 -340 149 -482 18 -25 -22 -57
-65 -71 -96 l-28 -55 -165 0 -166 0 -27 -27 c-21 -21 -33 -50 -48 -118 -11
-49 -31 -134 -43 -187 l-22 -98 -97 0 -96 0 -47 88 c-87 165 -228 337 -283
348 -37 7 -89 -15 -105 -45 -25 -49 -13 -85 62 -177 39 -49 89 -116 110 -149
l38 -60 -180 -5 -180 -5 -27 -27 c-41 -41 -39 -100 5 -139 l32 -29 220 0 219
0 20 -64 c26 -85 48 -194 57 -283 l7 -73 -330 0 -330 0 -26 -25 c-31 -32 -39
-71 -21 -113 24 -59 46 -62 394 -62 l310 0 0 -27 c0 -54 -29 -208 -56 -294
l-27 -88 -223 -3 -224 -3 -27 -27 c-41 -41 -39 -100 5 -139 l32 -29 165 0 c91
0 165 -4 165 -8 0 -14 -75 -127 -205 -307 -137 -189 -205 -295 -260 -404 -37
-75 -115 -292 -115 -323 0 -17 -35 -18 -593 -18 l-594 0 -13 58 c-18 83 -56
184 -106 284 -49 97 -49 98 -31 98 7 0 30 12 51 26 43 29 86 110 86 162 0 19
5 32 13 32 6 0 59 20 116 45 l104 44 33 -29 c64 -56 149 -62 229 -15 63 37
270 253 285 299 20 62 9 139 -29 193 l-33 46 30 66 c16 36 37 87 47 112 16 46
18 47 67 51 62 6 123 48 152 103 19 35 21 61 24 217 2 106 -1 192 -8 217 -21
78 -100 141 -177 141 l-39 0 -37 93 c-21 50 -43 104 -50 119 -9 23 -8 31 10
50 55 60 68 149 34 223 -25 52 -254 279 -303 300 -72 29 -174 9 -223 -45 -17
-19 -18 -19 -74 9 -31 16 -82 37 -113 47 -52 16 -58 20 -58 45 0 15 -2 34 -5
41 -7 19 141 80 278 114 131 33 387 44 542 23 126 -17 144 -15 178 21 59 66
24 141 -78 167 -59 15 -465 28 -525 17z m-590 -449 c0 -97 14 -113 136 -150
49 -15 131 -49 183 -76 126 -66 149 -65 218 3 l53 53 102 -102 102 -102 -52
-55 c-66 -70 -66 -88 -4 -210 27 -51 59 -127 71 -167 44 -147 65 -167 179
-168 l52 -1 0 -139 0 -139 -75 -4 c-96 -4 -112 -20 -150 -143 -14 -49 -49
-132 -76 -184 -66 -126 -64 -147 12 -226 l39 -41 -100 -99 -99 -99 -49 46
c-72 68 -91 69 -205 9 -52 -27 -140 -64 -196 -81 -127 -40 -141 -55 -141 -151
l0 -69 -145 0 -145 0 0 69 c0 95 -16 113 -128 146 -48 14 -137 51 -199 82
-130 65 -140 65 -214 -4 l-50 -47 -99 99 -99 99 44 47 c67 72 70 106 17 196
-37 63 -87 185 -102 249 -17 78 -44 98 -136 102 l-74 4 0 139 0 139 48 0 c67
0 120 17 138 44 8 13 24 59 36 102 12 43 46 125 76 183 66 130 66 151 -5 223
l-47 48 99 100 98 99 55 -50 c46 -42 59 -49 96 -49 23 0 46 4 52 9 19 19 171
89 239 110 145 46 155 57 155 166 l0 65 145 0 145 0 0 -75z m3303 13 c79 -55
74 -180 -9 -234 -16 -11 -46 -18 -74 -18 -89 0 -153 78 -136 168 18 96 136
141 219 84z m31 -1051 c75 -49 70 -181 -9 -233 -115 -75 -264 61 -201 185 38
73 137 96 210 48z m-37 -1047 c91 -55 81 -192 -17 -243 -40 -21 -97 -18 -135
7 -83 54 -83 187 -1 237 41 25 112 25 153 -1z m-1843 -1055 c60 -29 83 -103
51 -165 -32 -62 -13 -60 -700 -60 -698 0 -667 -3 -701 68 -28 60 1 138 61 162
11 5 298 9 638 9 533 1 623 -1 651 -14z m-11 -439 c18 -7 40 -23 50 -34 27
-29 33 -92 13 -130 -34 -65 4 -62 -699 -62 -702 0 -670 -3 -703 61 -30 60 -3
137 59 164 47 21 1232 22 1280 1z m-165 -531 c5 -149 -19 -209 -101 -256 -42
-24 -43 -24 -372 -24 -292 0 -334 2 -361 17 -44 24 -91 81 -103 125 -12 42
-15 226 -4 236 3 4 216 6 472 5 l466 -3 3 -100z"/>
<path d="M1763 4042 c-33 -5 -70 -48 -77 -90 -10 -62 -7 -744 4 -783 15 -52
43 -74 97 -74 37 0 49 5 69 28 l24 28 0 418 0 418 -25 26 c-26 26 -54 35 -92
29z"/>
<path d="M1076 4018 c-18 -17 -68 -131 -176 -408 -83 -212 -152 -400 -153
-417 -3 -75 80 -124 144 -87 27 16 40 35 64 97 l30 77 154 -2 154 -3 29 -69
c15 -39 36 -78 45 -88 24 -26 75 -33 111 -14 37 19 52 44 52 86 0 48 -297 800
-326 828 -17 15 -38 22 -64 22 -26 0 -47 -7 -64 -22z m98 -436 c16 -42 31 -83
33 -89 4 -10 -13 -13 -66 -13 -39 0 -71 3 -71 7 0 13 65 173 70 173 3 0 18
-35 34 -78z"/>
<path d="M3011 4886 c-90 -50 -50 -186 55 -186 38 0 94 59 94 100 0 23 -9 42
-34 66 -37 37 -73 43 -115 20z"/>
</g>
</svg>
